<svg id="Capa_1" enable-background="new 0 0 512 512" height="512" viewBox="0 0 512 512" width="512" xmlns="http://www.w3.org/2000/svg"><g><g><g><path d="m266.418 7.5h-22.542c-85.334 0-154.512 69.177-154.512 154.512v288.66h331.565v-288.66c0-85.335-69.177-154.512-154.511-154.512z" fill="#eef9fa"/></g></g><g><g><path d="m266.418 7.5h-22.542c-1.247 0-2.489.018-3.729.047 83.611 1.98 150.783 70.376 150.783 154.464v288.659h30v-288.658c-.001-85.335-69.178-154.512-154.512-154.512z" fill="#dcf2f6"/></g></g><g><g><path d="m276.286 293.112c6.748 13.46 63.023 37.518 86.285-56.98 0 0-41.049-8.387-65.72 4.236-24.672 12.623-25.859 42.185-20.565 52.744z" fill="#6dc17d"/></g></g><g><g><path d="m236.836 293.112c-6.748 13.46-63.023 37.518-86.285-56.98 0 0 41.049-8.387 65.72 4.236s25.858 42.185 20.565 52.744z" fill="#aaddb6"/></g></g><g><g><path d="m414.297 450.772c4.408 0 7.433-4.39 5.921-8.53-4.403-12.052-15.964-20.656-29.54-20.656-6.263 0-12.094 1.838-16.996 4.994-6.317-15.03-21.175-25.585-38.501-25.585-6.588 0-12.817 1.531-18.358 4.249-7.195-26.816-31.667-46.56-60.754-46.56-30.333 0-55.65 21.471-61.585 50.044-6.826-4.863-15.17-7.733-24.189-7.733-16.547 0-30.844 9.628-37.598 23.586-4.066-1.918-8.606-2.995-13.399-2.995-13.576 0-25.137 8.604-29.54 20.656-1.512 4.14 1.513 8.53 5.921 8.53z" fill="#cf9875"/></g></g><g><g><g><path d="m420.241 442.305c-4.385-12.085-15.963-20.72-29.563-20.72-6.263 0-12.094 1.838-16.996 4.994-6.317-15.03-21.176-25.585-38.501-25.585-6.588 0-12.816 1.531-18.357 4.249-7.195-26.816-31.667-46.561-60.754-46.561-19.469 0-36.861 8.854-48.398 22.745 5.82-1.778 11.995-2.745 18.398-2.745 21.938 0 41.251 11.232 52.506 28.258 5.871 8.881 15.762 14.104 26.408 14.054h.197c11.301 0 21.552 4.49 29.067 11.784 6.352 6.164 14.952 9.659 23.773 8.918.876-.074 1.761-.111 2.656-.111 8.666 0 16.5 3.516 22.187 9.186h31.433c4.378.001 7.437-4.35 5.944-8.466z" fill="#c7865b"/></g></g></g><g><g><path d="m444.061 504.5h-376.122c-2.233 0-4.043-1.81-4.043-4.043v-31.043c0-10.351 8.391-18.742 18.742-18.742h346.724c10.351 0 18.742 8.391 18.742 18.742v31.043c0 2.233-1.81 4.043-4.043 4.043z" fill="#8d562f"/></g></g><g><g><path d="m429.362 450.671h-30c10.351 0 18.742 8.392 18.742 18.742v31.043c0 2.233-1.81 4.043-4.043 4.043h30c2.233 0 4.043-1.81 4.043-4.043v-31.043c0-10.35-8.391-18.742-18.742-18.742z" fill="#804e2b"/></g></g><g><path d="m89.364 313.615c4.143 0 7.5-3.358 7.5-7.5v-144.103c0-81.063 65.949-147.012 147.012-147.012h22.542c81.063 0 147.012 65.949 147.012 147.012v68.344c0 4.142 3.357 7.5 7.5 7.5s7.5-3.358 7.5-7.5v-68.344c-.001-89.334-72.679-162.012-162.012-162.012h-22.542c-89.334 0-162.012 72.678-162.012 162.012v144.103c0 4.142 3.357 7.5 7.5 7.5z"/><path d="m429.362 443.171h-.933v-182.816c0-4.142-3.357-7.5-7.5-7.5s-7.5 3.358-7.5 7.5v161.107c-6.497-4.679-14.414-7.377-22.751-7.377-4.732 0-9.383.855-13.752 2.506-8.904-14.244-24.557-23.098-41.745-23.098-4.708 0-9.302.65-13.73 1.938-8.682-21.717-27.672-37.621-50.268-42.598 3.276-15.488 7.816-30.751 13.882-43.338 4.535 2.025 11.166 4.122 19.268 4.122 1.696 0 3.458-.092 5.274-.295 12.559-1.409 24.325-7.957 34.028-18.935 11.329-12.817 20.149-31.815 26.217-56.464.488-1.981.147-4.077-.943-5.801-1.091-1.725-2.838-2.931-4.838-3.339-1.781-.364-43.934-8.755-70.638 4.908-12.618 6.456-21.622 17.788-25.354 31.907-2.932 11.091-2.342 23.21 1.5 30.875 0 0 .001 0 .001.001.745 1.486 1.773 2.952 3.038 4.364-5.808 11.486-10.678 25.621-14.581 42.343-.855-4.202-1.798-8.247-2.844-12.134-3.317-12.322-7.697-23.061-13.081-32.226.548-.774 1.032-1.558 1.428-2.348h-.001c3.844-7.665 4.433-19.784 1.502-30.875-3.731-14.119-12.735-25.451-25.355-31.907-26.706-13.664-68.857-5.271-70.638-4.908-2 .409-3.747 1.614-4.838 3.339s-1.432 3.82-.943 5.802c6.067 24.65 14.889 43.647 26.218 56.465 9.704 10.979 21.471 17.526 34.029 18.934 1.817.204 3.576.295 5.272.295 8.384 0 15.216-2.246 19.755-4.334.629-.29 1.241-.594 1.844-.905 4.135 7.52 7.57 16.342 10.323 26.567 1.451 5.391 2.703 11.111 3.765 17.213-24.897 4.191-45.942 21.627-54.59 45.389-6.137-2.67-12.77-4.055-19.589-4.055-16.471 0-31.896 8.413-40.952 21.899-3.253-.869-6.612-1.308-10.045-1.308-8.202 0-15.999 2.608-22.435 7.147v-85.117c0-4.142-3.357-7.5-7.5-7.5s-7.5 3.358-7.5 7.5v107.076c-14.112.412-25.468 12.013-25.468 26.223v31.043c0 6.365 5.178 11.543 11.543 11.543h376.122c6.365 0 11.543-5.178 11.543-11.543v-31.043c.002-14.47-11.77-26.242-26.24-26.242zm-129.096-196.126c15.92-8.145 40.431-6.41 52.913-4.8-9.847 34.138-25.76 53.986-45.243 56.172-5.766.648-11.04-.379-15.26-1.997 4.202-5.89 8.944-10.578 14.286-13.573 3.612-2.026 4.898-6.597 2.873-10.21-2.026-3.613-6.597-4.898-10.211-2.873-6.533 3.663-12.491 9.074-17.862 16.191-2.071-10.14 1.08-29.995 18.504-38.91zm-95.079 51.372c-19.484-2.185-35.397-22.033-45.245-56.172 12.484-1.61 36.995-3.344 52.913 4.8 16.57 8.478 20.229 26.845 18.768 37.347-5.379-5.963-11.415-10.865-18.124-14.628-3.614-2.025-8.185-.74-10.211 2.873-2.025 3.613-.739 8.184 2.873 10.21 5.862 3.287 11.07 7.621 15.673 13.012-4.42 1.932-10.233 3.278-16.647 2.558zm-85.889 130.668c3.563 0 6.995.766 10.199 2.277 3.72 1.755 8.158.186 9.95-3.516 5.689-11.756 17.798-19.353 30.848-19.353 7.155 0 14.015 2.193 19.838 6.341 2.063 1.471 4.729 1.799 7.088.875s4.092-2.977 4.606-5.457c4.65-22.39 22.762-39.394 44.765-43.244 1.663 14.515 2.468 31.04 2.468 50.239 0 4.142 3.357 7.5 7.5 7.5s7.5-3.358 7.5-7.5c0-12.636 1.294-30.72 4.373-49.656 19.653 4.508 35.763 19.532 41.146 39.596.581 2.165 2.102 3.957 4.143 4.885s4.39.893 6.404-.095c4.712-2.311 9.776-3.482 15.055-3.482 13.828 0 26.228 8.239 31.587 20.991.858 2.043 2.577 3.602 4.694 4.258 2.115.656 4.415.343 6.279-.858 3.862-2.486 8.335-3.8 12.936-3.8 9.422 0 17.976 5.593 21.82 14.086h-315.019c3.844-8.493 12.398-14.087 21.82-14.087zm321.306 67.915h-369.208v-27.587c0-6.199 5.043-11.242 11.242-11.242h346.724c6.199 0 11.242 5.043 11.242 11.242z"/></g></g></svg>