<svg id="Layer_1" enable-background="new 0 0 512.002 512.002" height="512" viewBox="0 0 512.002 512.002" width="512" xmlns="http://www.w3.org/2000/svg"><g><g clip-rule="evenodd" fill-rule="evenodd"><path d="m301.469 156.071h60.561c11.103 0 20.187 9.084 20.187 20.187v60.561c0 23.687.17 59.766-28.415 76.27-16.942 9.782-31.01-6.419-22.639-20.919 8.205-14.211 8.409-27.342.587-35.165h-30.281c-11.102 0-20.186-9.084-20.186-20.187v-60.561c-.001-11.102 9.083-20.186 20.186-20.186zm-151.497 0h60.561c11.102 0 20.187 9.084 20.187 20.187v60.561c0 23.687.17 59.766-28.415 76.27-16.942 9.782-31.01-6.419-22.639-20.919 8.205-14.211 8.409-27.342.587-35.165h-30.281c-11.103 0-20.187-9.084-20.187-20.187v-60.561c0-11.102 9.084-20.186 20.187-20.186zm-118.452 276.535 44.087-36.46h406.395c11 0 20-9.005 20-20.009v-280.131c0-11.005-9-20.009-20-20.009h-452.002c-11 0-20 9.004-20 20.009v327.32c-.008 11.158 12.528 16.716 21.52 9.28z" fill="#ffcd69"/><g fill="#fff"><path d="m230.72 236.819v-60.561c0-11.103-9.084-20.187-20.187-20.187h-60.561c-11.103 0-20.187 9.084-20.187 20.187v60.561c0 11.103 9.084 20.187 20.187 20.187h30.281c7.822 7.822 7.618 20.954-.587 35.165-8.372 14.5 5.697 30.701 22.639 20.919 28.585-16.505 28.415-52.584 28.415-76.271z"/><path d="m281.282 176.258v60.561c0 11.103 9.084 20.187 20.186 20.187h30.281c7.822 7.822 7.618 20.954-.587 35.165-8.371 14.5 5.697 30.701 22.639 20.919 28.585-16.504 28.415-52.583 28.415-76.27v-60.561c0-11.103-9.084-20.187-20.187-20.187h-60.561c-11.102-.001-20.186 9.083-20.186 20.186z"/></g></g><g><path d="m482.002 65.996h-452.002c-16.542 0-30 13.462-30 30.009l.001 327.312c-.007 8.935 4.893 16.796 12.787 20.516 3.095 1.458 6.392 2.172 9.69 2.172 5.436 0 10.876-1.941 15.414-5.694l41.313-34.166h131.792c5.522 0 10-4.477 10-10s-4.478-10-10-10h-135.391c-2.326 0-4.58.811-6.373 2.294l-44.087 36.461c-1.841 1.522-3.296 1.095-3.834.841-.884-.416-1.312-1.204-1.312-2.415v-327.321c0-5.519 4.486-10.009 10-10.009h452.002c5.514 0 10 4.49 10 10.009v280.131c0 5.519-4.486 10.009-10 10.009h-181.004c-5.522 0-10 4.477-10 10s4.478 10 10 10h181.004c16.542 0 30-13.462 30-30.009v-280.131c0-16.547-13.458-30.009-30-30.009z"/><path d="m210.533 146.071h-60.562c-16.645 0-30.187 13.542-30.187 30.187v60.561c0 16.645 13.542 30.187 30.187 30.187h25.129c1.956 4.813.533 12.149-4.094 20.164-6.179 10.701-4.783 23.438 3.473 31.694 4.765 4.765 10.965 7.194 17.542 7.194 5.033 0 10.286-1.422 15.284-4.308 33.418-19.294 33.416-60.121 33.415-84.514v-60.978c0-16.645-13.542-30.187-30.187-30.187zm10.187 91.166c.001 22.651.002 53.672-23.415 67.192-3.615 2.087-6.78 2.196-8.684.293-1.427-1.427-2.253-4.16-.295-7.552 10.596-18.354 10.222-36.012-1.002-47.236-1.876-1.875-4.419-2.929-7.071-2.929h-30.281c-5.617 0-10.187-4.57-10.187-10.187v-60.561c0-5.617 4.569-10.187 10.187-10.187h60.562c5.617 0 10.187 4.57 10.187 10.187v60.98z"/><path d="m326.597 267.006c1.956 4.813.533 12.149-4.094 20.164-6.179 10.701-4.783 23.438 3.473 31.694 4.765 4.765 10.965 7.193 17.542 7.193 5.032 0 10.285-1.422 15.283-4.308 33.419-19.294 33.417-60.121 33.416-84.514v-60.978c0-16.645-13.542-30.187-30.187-30.187h-60.562c-16.645 0-30.187 13.542-30.187 30.187v60.561c0 16.645 13.542 30.187 30.187 30.187h25.129zm-35.315-30.187v-60.561c0-5.617 4.569-10.187 10.187-10.187h60.562c5.617 0 10.187 4.57 10.187 10.187v60.979c.001 22.65.002 53.672-23.416 67.192-3.617 2.087-6.78 2.195-8.683.293-1.427-1.427-2.253-4.16-.295-7.552 10.597-18.354 10.221-36.013-1.004-47.236-1.875-1.875-4.418-2.929-7.07-2.929h-30.28c-5.618.001-10.188-4.569-10.188-10.186z"/><path d="m256.001 386.146h-.007c-5.522 0-9.996 4.477-9.996 10s4.48 10 10.003 10 10-4.477 10-10-4.478-10-10-10z"/></g></g></svg>