<svg height="511pt" viewBox="-7 0 511 511.99999" width="511pt" xmlns="http://www.w3.org/2000/svg"><path d="m480.367188 342.96875-155.667969-269.625c-4.203125-7.28125-11.566407-12.183594-19.90625-13.25l-65.277344-8.347656 162.40625 281.292968c13.105469 22.699219 5.328125 51.726563-17.375 64.832032l-117.542969 67.863281 7.503906 12.992187c12.839844 22.242188 41.277344 29.859376 63.519532 17.019532l119.960937-69.257813c29.242188-16.886719 39.261719-54.277343 22.378907-83.519531zm0 0" fill="#ee4a77"/><path d="m401.921875 333.039062-162.40625-281.292968-1.472656-2.554688c-7.757813-13.429687-21.339844-22.472656-36.722657-24.4375l-113.570312-14.527344c-12.429688-1.59375-24.394531 5.3125-29.230469 16.875l-44.203125 105.617188c-5.988281 14.308594-4.953125 30.589844 2.800782 44.023438l163.878906 283.84375c13.105468 22.703124 42.132812 30.480468 64.832031 17.375l21.175781-12.226563 117.542969-67.863281c22.703125-13.105469 30.480469-42.132813 17.375-64.832032zm-299.332031-208.5625c-8.511719-14.742187-3.460938-33.585937 11.277344-42.097656 14.742187-8.507812 33.585937-3.460937 42.097656 11.28125 8.507812 14.738282 3.460937 33.585938-11.28125 42.09375-14.738282 8.511719-33.585938 3.460938-42.09375-11.277344zm0 0" fill="#ffca49"/><path d="m155.960938 93.65625c-8.511719-14.738281-27.359376-19.785156-42.097657-11.277344-14.738281 8.507813-19.785156 27.355469-11.277343 42.09375 8.507812 14.738282 27.355468 19.789063 42.09375 11.28125 14.738281-8.511718 19.789062-27.359375 11.28125-42.097656zm0 0" fill="#eef8fd"/><g fill="#231f20"><path d="m108.867188 73.71875c-19.488282 11.253906-26.191407 36.265625-14.9375 55.757812 5.449218 9.441407 14.253906 16.195313 24.78125 19.015626 3.519531.945312 7.085937 1.410156 10.632812 1.410156 7.070312 0 14.050781-1.855469 20.339844-5.488282 9.441406-5.449218 16.195312-14.25 19.015625-24.78125 2.824219-10.53125 1.375-21.53125-4.074219-30.972656-11.253906-19.492187-36.265625-26.195312-55.757812-14.941406zm40.515624 40.734375c-1.4375 5.371094-4.882812 9.859375-9.699218 12.640625-4.8125 2.78125-10.421875 3.519531-15.792969 2.082031-5.371094-1.441406-9.859375-4.882812-12.640625-9.699219-5.738281-9.941406-2.320312-22.699218 7.621094-28.4375 3.269531-1.886718 6.839844-2.785156 10.371094-2.785156 7.199218 0 14.210937 3.734375 18.0625 10.40625 2.777343 4.816406 3.519531 10.421875 2.078124 15.792969zm0 0"/><path d="m316.65625 174.453125h-.027344c-5.519531 0-9.984375 4.476563-9.984375 10 0 5.519531 4.488281 10 10.011719 10s10-4.480469 10-10c0-5.523437-4.480469-10-10-10zm0 0"/><path d="m489.027344 337.96875-155.667969-269.625c-5.730469-9.921875-15.9375-16.714844-27.300781-18.167969l-60.40625-7.726562c-9.417969-15.085938-25.371094-25.355469-43.0625-27.617188l-113.574219-14.527343c-16.828125-2.15625-33.167969 7.277343-39.722656 22.9375l-44.203125 105.617187c-7.148438 17.078125-5.890625 36.847656 3.367187 52.882813l163.882813 283.84375c10.628906 18.414062 29.980468 28.71875 49.859375 28.71875 9.738281 0 19.605469-2.472657 28.632812-7.683594l12.515625-7.226563 2.5 4.332031c7.546875 13.070313 19.730469 22.417969 34.308594 26.324219 4.867188 1.304688 9.804688 1.949219 14.714844 1.949219 9.789062 0 19.453125-2.566406 28.15625-7.59375l119.964844-69.261719c16.453124-9.5 28.226562-24.839843 33.144531-43.195312 4.914062-18.351563 2.390625-37.523438-7.109375-53.980469zm-12.210938 48.804688c-3.535156 13.195312-11.996094 24.222656-23.828125 31.054687l-119.960937 69.257813c-8.445313 4.875-18.28125 6.171874-27.699219 3.644531-9.417969-2.523438-17.289063-8.5625-22.164063-17.003907l-2.5-4.332031 108.882813-62.867187c.820313-.472656 1.625-.960938 2.414063-1.46875.019531-.015625.039062-.027344.058593-.039063.152344-.101562.308594-.199219.457031-.300781.101563-.066406.203126-.132812.304688-.199219.074219-.050781.144531-.097656.21875-.148437 11.484375-7.738282 19.699219-19.222656 23.320312-32.730469 3.933594-14.675781 1.972657-30-5.511718-43.203125-.015625-.027344-.03125-.054688-.046875-.085938-.0625-.105468-.121094-.210937-.183594-.3125l-65.398437-113.28125c-2.765626-4.78125-8.878907-6.421874-13.660157-3.660156-4.785156 2.761719-6.421875 8.878906-3.660156 13.660156l65.402344 113.277344c8.367187 14.496094 5.914062 32.316406-4.832031 44.050782-2.515626 2.75-5.488282 5.164062-8.882813 7.125l-117.542969 67.863281c-.011718.007812-.027344.015625-.039062.023437l-21.136719 12.203125c-17.886719 10.324219-40.84375 4.175781-51.171875-13.714843l-163.878906-283.84375c-6.152344-10.660157-6.992188-23.804688-2.238282-35.164063l44.203126-105.617187c3.089843-7.382813 10.792968-11.835938 18.738281-10.816407l113.570312 14.527344c12.210938 1.5625 23.175781 8.859375 29.332031 19.519531l57.007813 98.738282c2.761719 4.78125 8.878906 6.421874 13.660156 3.660156 4.78125-2.761719 6.421875-8.875 3.660157-13.660156l-45.441407-78.707032 45.253907 5.789063c5.210937.667969 9.886718 3.78125 12.515624 8.328125l155.667969 269.628906c6.828125 11.828125 8.644531 25.609375 5.109375 38.804688zm0 0"/></g></svg>